# Blender 3.3.1
# www.blender.org
mtllib piedra.mtl
o Cube.001
v 1.618040 0.390263 -0.577546
v 2.007486 -0.452002 -0.489054
v 2.007486 0.391220 0.255188
v 2.007486 -0.366603 0.290283
v -1.505468 0.636146 0.198266
v -1.800711 -0.710687 -0.417162
v -1.800711 0.385705 1.000000
v -1.800711 -0.688166 0.421588
v 0.103387 -1.000000 -1.000000
v 0.103387 1.151799 0.452907
v 0.103387 -1.000000 1.000000
v 0.344061 1.000000 -0.498829
v -0.848662 -1.000000 -1.000000
v -0.848662 1.170638 1.000000
v -0.848662 -1.000000 1.000000
v -0.848662 1.000000 -0.511415
v 1.055437 -1.000000 1.000000
v 0.814763 1.000000 -0.498829
v 1.055437 -0.767962 -0.750716
v 1.050543 0.877238 0.388713
v 1.854826 0.000000 -0.852088
v -1.800711 -0.000000 1.000000
v 2.007486 -0.000000 1.000000
v -1.381304 0.000000 -0.462172
v 0.103387 0.000000 -1.341803
v 0.103387 -0.000000 1.623521
v -0.848662 0.000000 -1.000000
v -0.848662 -0.000000 1.623521
v 1.055437 -0.000000 1.623521
v 1.055437 0.000000 -1.341803
vn -0.5576 0.8249 -0.0931
vn -0.5479 -0.0000 0.8366
vn -0.9566 0.0982 -0.2744
vn 0.4897 -0.8644 -0.1146
vn 0.9847 -0.1545 -0.0812
vn 0.3850 0.6758 -0.6285
vn -0.3070 0.4178 -0.8551
vn -0.0000 -1.0000 -0.0000
vn -0.0000 0.8152 0.5792
vn -0.0000 0.9906 0.1370
vn -0.3251 -0.9454 0.0254
vn -0.6719 0.3251 -0.6654
vn -0.0000 0.4701 0.8826
vn 0.0017 0.9876 -0.1571
vn 0.4217 0.8848 -0.1982
vn 0.3541 0.7631 0.5407
vn -0.0000 0.6445 -0.7646
vn 0.2368 -0.9716 -0.0000
vn 0.3105 -0.3074 -0.8995
vn 0.6823 -0.6496 0.3355
vn -0.0000 -0.5291 0.8486
vn -0.4607 0.2174 -0.8605
vn -0.0000 -0.0000 -1.0000
vn 0.3796 -0.4980 -0.7797
vn 0.9545 0.2963 -0.0325
vn -0.8615 0.5076 -0.0136
vn -0.5599 -0.5331 0.6342
vn -0.6361 0.7716 0.0068
vn -0.3614 0.4383 0.8230
vn -0.9384 -0.0000 -0.3456
vn 0.2873 -0.9521 0.1043
vn 0.6906 0.6467 -0.3237
vn 0.4240 0.6412 -0.6396
vn 0.0081 0.6434 -0.7655
vn 0.2463 0.6908 0.6797
vn 0.2722 0.9586 -0.0841
vn -0.2908 -0.9568 -0.0000
vn -0.7675 0.3835 -0.5137
vn 0.3850 0.6579 0.6473
vn -0.0448 0.9927 -0.1121
vn 0.6008 0.7979 -0.0492
vn 0.4575 0.7872 0.4135
vn -0.0000 -0.9913 -0.1314
vn -0.0000 -0.6099 -0.7925
vn 0.4858 -0.4625 0.7417
vn -0.7105 -0.0000 -0.7037
vn -0.3217 -0.3062 -0.8960
vn 0.4367 -0.5487 -0.7129
vn 0.9843 0.1571 -0.0811
vn -0.9364 0.2258 -0.2686
vn -0.4858 -0.4625 0.7417
vt 0.625000 0.500000
vt 0.375000 0.500000
vt 0.625000 0.750000
vt 0.375000 0.750000
vt 0.875000 0.500000
vt 0.625000 0.250000
vt 0.375000 0.250000
vt 0.125000 0.500000
vt 0.875000 0.750000
vt 0.625000 1.000000
vt 0.625000 0.000000
vt 0.125000 0.750000
vt 0.375000 1.000000
vt 0.375000 0.000000
vt 0.250000 0.500000
vt 0.375000 0.375000
vt 0.625000 0.875000
vt 0.750000 0.750000
vt 0.250000 0.750000
vt 0.375000 0.875000
vt 0.750000 0.500000
vt 0.625000 0.375000
vt 0.187500 0.500000
vt 0.375000 0.312500
vt 0.625000 0.937500
vt 0.812500 0.750000
vt 0.187500 0.750000
vt 0.375000 0.937500
vt 0.625000 0.312500
vt 0.812500 0.500000
vt 0.312500 0.750000
vt 0.375000 0.812500
vt 0.687500 0.500000
vt 0.625000 0.437500
vt 0.312500 0.500000
vt 0.375000 0.437500
vt 0.687500 0.750000
vt 0.625000 0.812500
vt 0.500000 0.500000
vt 0.500000 0.000000
vt 0.500000 1.000000
vt 0.500000 0.750000
vt 0.500000 0.250000
vt 0.500000 0.375000
vt 0.500000 0.875000
vt 0.500000 0.312500
vt 0.500000 0.937500
vt 0.500000 0.812500
vt 0.500000 0.437500
s 0
usemtl Material.001
f 5/5/1 14/26/1 16/30/1
f 28/47/2 7/10/2 22/41/2
f 22/40/3 5/6/3 24/43/3
f 19/35/4 4/4/4 17/31/4
f 21/39/5 3/3/5 23/42/5
f 30/49/6 1/1/6 21/39/6
f 16/29/7 25/44/7 27/46/7
f 9/15/8 15/27/8 13/23/8
f 20/38/9 26/45/9 29/48/9
f 12/21/10 20/37/10 18/33/10
f 6/8/11 15/27/11 8/12/11
f 24/43/12 16/29/12 27/46/12
f 26/45/13 14/25/13 28/47/13
f 16/30/14 10/18/14 12/21/14
f 1/1/15 20/37/15 3/3/15
f 23/42/16 20/38/16 29/48/16
f 12/22/17 30/49/17 25/44/17
f 19/35/18 11/19/18 9/15/18
f 25/44/19 19/36/19 9/16/19
f 23/42/20 17/32/20 4/4/20
f 26/45/21 15/28/21 11/20/21
f 24/43/22 13/24/22 6/7/22
f 29/48/21 11/20/21 17/32/21
f 27/46/23 9/16/23 13/24/23
f 19/36/24 21/39/24 2/2/24
f 21/39/25 4/4/25 2/2/25
f 8/14/26 24/43/26 6/7/26
f 15/28/27 22/41/27 8/13/27
f 5/5/28 7/9/28 14/26/28
f 28/47/29 14/25/29 7/10/29
f 22/40/30 7/11/30 5/6/30
f 19/35/31 2/2/31 4/4/31
f 21/39/32 1/1/32 3/3/32
f 30/49/33 18/34/33 1/1/33
f 16/29/34 12/22/34 25/44/34
f 9/15/8 11/19/8 15/27/8
f 20/38/35 10/17/35 26/45/35
f 12/21/36 10/18/36 20/37/36
f 6/8/37 13/23/37 15/27/37
f 24/43/38 5/6/38 16/29/38
f 26/45/39 10/17/39 14/25/39
f 16/30/40 14/26/40 10/18/40
f 1/1/41 18/33/41 20/37/41
f 23/42/42 3/3/42 20/38/42
f 12/22/17 18/34/17 30/49/17
f 19/35/43 17/31/43 11/19/43
f 25/44/44 30/49/44 19/36/44
f 23/42/45 29/48/45 17/32/45
f 26/45/21 28/47/21 15/28/21
f 24/43/46 27/46/46 13/24/46
f 29/48/21 26/45/21 11/20/21
f 27/46/47 25/44/47 9/16/47
f 19/36/48 30/49/48 21/39/48
f 21/39/49 23/42/49 4/4/49
f 8/14/50 22/40/50 24/43/50
f 15/28/51 28/47/51 22/41/51
